<svg width="20" height="20" viewBox="0 0 20 20" fill="none" xmlns="http://www.w3.org/2000/svg">
<path d="M17.9167 9.08333V3.41666C17.9167 2.16666 17.3833 1.66666 16.0583 1.66666H12.6917C11.3667 1.66666 10.8333 2.16666 10.8333 3.41666V9.08333C10.8333 10.3333 11.3667 10.8333 12.6917 10.8333H16.0583C17.3833 10.8333 17.9167 10.3333 17.9167 9.08333Z" fill="white"/>
<path d="M9.16667 10.9167V16.5833C9.16667 17.8333 8.63333 18.3333 7.30833 18.3333H3.94167C2.61667 18.3333 2.08333 17.8333 2.08333 16.5833V10.9167C2.08333 9.66666 2.61667 9.16666 3.94167 9.16666H7.30833C8.63333 9.16666 9.16667 9.66666 9.16667 10.9167Z" fill="white"/>
<path d="M17.9167 16.5833V14.25C17.9167 13 17.3833 12.5 16.0583 12.5H12.6917C11.3667 12.5 10.8333 13 10.8333 14.25V16.5833C10.8333 17.8333 11.3667 18.3333 12.6917 18.3333H16.0583C17.3833 18.3333 17.9167 17.8333 17.9167 16.5833Z" fill="white"/>
<path d="M9.16667 5.75V3.41666C9.16667 2.16666 8.63333 1.66666 7.30833 1.66666H3.94167C2.61667 1.66666 2.08333 2.16666 2.08333 3.41666V5.75C2.08333 7 2.61667 7.5 3.94167 7.5H7.30833C8.63333 7.5 9.16667 7 9.16667 5.75Z" fill="white"/>
</svg>
