<svg width="22" height="22" viewBox="0 0 22 22" fill="none" xmlns="http://www.w3.org/2000/svg">
<path d="M11 21.75C5.07 21.75 0.25 16.93 0.25 11C0.25 5.07 5.07 0.25 11 0.25C16.93 0.25 21.75 5.07 21.75 11C21.75 16.93 16.93 21.75 11 21.75ZM11 1.75C5.9 1.75 1.75 5.9 1.75 11C1.75 16.1 5.9 20.25 11 20.25C16.1 20.25 20.25 16.1 20.25 11C20.25 5.9 16.1 1.75 11 1.75Z" fill="#292D32"/>
<path d="M8.17 14.58C7.98 14.58 7.79 14.51 7.64 14.36C7.35 14.07 7.35 13.59 7.64 13.3L13.3 7.64C13.59 7.35 14.07 7.35 14.36 7.64C14.65 7.93 14.65 8.41 14.36 8.7L8.7 14.36C8.56 14.51 8.36 14.58 8.17 14.58Z" fill="#292D32"/>
<path d="M13.83 14.58C13.64 14.58 13.45 14.51 13.3 14.36L7.64 8.7C7.35 8.41 7.35 7.93 7.64 7.64C7.93 7.35 8.41 7.35 8.7 7.64L14.36 13.3C14.65 13.59 14.65 14.07 14.36 14.36C14.21 14.51 14.02 14.58 13.83 14.58Z" fill="#292D32"/>
</svg>
