<svg width="22" height="22" viewBox="0 0 22 22" fill="none" xmlns="http://www.w3.org/2000/svg">
<path d="M10.5 20.75C4.85 20.75 0.25 16.15 0.25 10.5C0.25 4.85 4.85 0.25 10.5 0.25C16.15 0.25 20.75 4.85 20.75 10.5C20.75 16.15 16.15 20.75 10.5 20.75ZM10.5 1.75C5.67 1.75 1.75 5.68 1.75 10.5C1.75 15.32 5.67 19.25 10.5 19.25C15.33 19.25 19.25 15.32 19.25 10.5C19.25 5.68 15.33 1.75 10.5 1.75Z" fill="#292D32"/>
<path d="M21 21.75C20.81 21.75 20.62 21.68 20.47 21.53L18.47 19.53C18.18 19.24 18.18 18.76 18.47 18.47C18.76 18.18 19.24 18.18 19.53 18.47L21.53 20.47C21.82 20.76 21.82 21.24 21.53 21.53C21.38 21.68 21.19 21.75 21 21.75Z" fill="#292D32"/>
</svg>
