<svg width="18" height="18" viewBox="0 0 18 18" fill="none" xmlns="http://www.w3.org/2000/svg">
<path d="M16.5001 4.60827C16.4834 4.60827 16.4584 4.60827 16.4334 4.60827C12.0251 4.16661 7.62505 3.99994 3.26672 4.44161L1.56672 4.60827C1.21672 4.64161 0.908385 4.39161 0.875052 4.04161C0.841718 3.69161 1.09172 3.39161 1.43339 3.35827L3.13339 3.19161C7.56672 2.74161 12.0584 2.91661 16.5584 3.35827C16.9001 3.39161 17.1501 3.69994 17.1167 4.04161C17.0917 4.36661 16.8167 4.60827 16.5001 4.60827Z" fill="#7E92A2"/>
<path d="M6.08338 3.76663C6.05005 3.76663 6.01672 3.76663 5.97505 3.75829C5.64172 3.69996 5.40838 3.37496 5.46672 3.04163L5.65005 1.94996C5.78338 1.14996 5.96672 0.041626 7.90838 0.041626H10.0917C12.0417 0.041626 12.225 1.19163 12.35 1.95829L12.5334 3.04163C12.5917 3.38329 12.3584 3.70829 12.025 3.75829C11.6834 3.81663 11.3584 3.58329 11.3084 3.24996L11.125 2.16663C11.0084 1.44163 10.9834 1.29996 10.1 1.29996H7.91672C7.03338 1.29996 7.01672 1.41663 6.89172 2.15829L6.70005 3.24163C6.65005 3.54996 6.38338 3.76663 6.08338 3.76663Z" fill="#7E92A2"/>
<path d="M11.675 17.9583H6.325C3.41666 17.9583 3.3 16.3499 3.20833 15.0499L2.66666 6.65827C2.64166 6.31661 2.90833 6.01661 3.25 5.99161C3.6 5.97494 3.89166 6.23327 3.91666 6.57494L4.45833 14.9666C4.55 16.2333 4.58333 16.7083 6.325 16.7083H11.675C13.425 16.7083 13.4583 16.2333 13.5417 14.9666L14.0833 6.57494C14.1083 6.23327 14.4083 5.97494 14.75 5.99161C15.0917 6.01661 15.3583 6.30827 15.3333 6.65827L14.7917 15.0499C14.7 16.3499 14.5833 17.9583 11.675 17.9583Z" fill="#7E92A2"/>
<path d="M10.3834 13.375H7.6084C7.26673 13.375 6.9834 13.0917 6.9834 12.75C6.9834 12.4083 7.26673 12.125 7.6084 12.125H10.3834C10.7251 12.125 11.0084 12.4083 11.0084 12.75C11.0084 13.0917 10.7251 13.375 10.3834 13.375Z" fill="#7E92A2"/>
<path d="M11.0834 10.0416H6.91675C6.57508 10.0416 6.29175 9.75829 6.29175 9.41663C6.29175 9.07496 6.57508 8.79163 6.91675 8.79163H11.0834C11.4251 8.79163 11.7084 9.07496 11.7084 9.41663C11.7084 9.75829 11.4251 10.0416 11.0834 10.0416Z" fill="#7E92A2"/>
</svg>
