<svg width="20" height="20" viewBox="0 0 20 20" fill="none" xmlns="http://www.w3.org/2000/svg">
<path fill-rule="evenodd" clip-rule="evenodd" d="M1.875 10C1.875 5.5142 5.5142 1.875 10 1.875C14.4858 1.875 18.125 5.5142 18.125 10C18.125 14.4858 14.4858 18.125 10 18.125C5.5142 18.125 1.875 14.4858 1.875 10ZM10 3.125C6.20455 3.125 3.125 6.20455 3.125 10C3.125 13.7954 6.20455 16.875 10 16.875C13.7954 16.875 16.875 13.7954 16.875 10C16.875 6.20455 13.7954 3.125 10 3.125Z" fill="#FF5343"/>
<path fill-rule="evenodd" clip-rule="evenodd" d="M9.99177 5.62698C10.1071 5.62588 10.2215 5.64831 10.328 5.6929C10.4345 5.73752 10.5308 5.80338 10.6109 5.88646C10.6911 5.96955 10.7535 6.06811 10.7943 6.17612C10.8351 6.28412 10.8534 6.39932 10.8482 6.51467L10.6243 11.2793C10.6086 11.6127 10.3338 11.875 10 11.875C9.66626 11.875 9.39138 11.6128 9.37569 11.2794L9.15142 6.51467C9.14625 6.40069 9.1641 6.28685 9.20389 6.17993C9.24369 6.073 9.30463 5.9752 9.38306 5.89234C9.46149 5.80949 9.55582 5.74329 9.6604 5.6977C9.76493 5.65213 9.87756 5.62808 9.99157 5.62698" fill="#FF5343"/>
<path d="M10 14.3715C9.84548 14.3715 9.69444 14.3257 9.56596 14.2398C9.43748 14.154 9.33735 14.032 9.27822 13.8892C9.21909 13.7465 9.20362 13.5894 9.23376 13.4378C9.26391 13.2863 9.33831 13.1471 9.44757 13.0378C9.55683 12.9285 9.69604 12.8541 9.84759 12.824C9.99913 12.7939 10.1562 12.8093 10.299 12.8685C10.4417 12.9276 10.5637 13.0277 10.6496 13.1562C10.7354 13.2847 10.7812 13.4357 10.7812 13.5902C10.7812 13.7974 10.6989 13.9961 10.5524 14.1427C10.4059 14.2892 10.2072 14.3715 10 14.3715Z" fill="#FF5343"/>
</svg>
