<svg width="16" height="16" viewBox="0 0 16 16" fill="none" xmlns="http://www.w3.org/2000/svg">
<path d="M13.0067 3.89998L9.04666 1.61331C8.39999 1.23998 7.59999 1.23998 6.94666 1.61331L2.99332 3.89998C2.34666 4.27331 1.94666 4.96665 1.94666 5.71998V10.28C1.94666 11.0266 2.34666 11.72 2.99332 12.1L6.95332 14.3866C7.59999 14.76 8.39999 14.76 9.05332 14.3866L13.0133 12.1C13.66 11.7266 14.06 11.0333 14.06 10.28V5.71998C14.0533 4.96665 13.6533 4.27998 13.0067 3.89998ZM7.49999 5.16665C7.49999 4.89331 7.72666 4.66665 7.99999 4.66665C8.27332 4.66665 8.49999 4.89331 8.49999 5.16665V8.66665C8.49999 8.93998 8.27332 9.16665 7.99999 9.16665C7.72666 9.16665 7.49999 8.93998 7.49999 8.66665V5.16665ZM8.61332 11.0866C8.57999 11.1666 8.53332 11.24 8.47332 11.3066C8.34666 11.4333 8.17999 11.5 7.99999 11.5C7.91332 11.5 7.82666 11.48 7.74666 11.4466C7.65999 11.4133 7.59332 11.3666 7.52666 11.3066C7.46666 11.24 7.41999 11.1666 7.37999 11.0866C7.34666 11.0066 7.33332 10.92 7.33332 10.8333C7.33332 10.66 7.39999 10.4866 7.52666 10.36C7.59332 10.3 7.65999 10.2533 7.74666 10.22C7.99332 10.1133 8.28666 10.1733 8.47332 10.36C8.53332 10.4266 8.57999 10.4933 8.61332 10.58C8.64666 10.66 8.66666 10.7466 8.66666 10.8333C8.66666 10.92 8.64666 11.0066 8.61332 11.0866Z" fill="#FE8084"/>
</svg>
